<?xml version="1.0" encoding="UTF-8"?>
<svg version="1.1" xmlns="http://www.w3.org/2000/svg" width="768" height="439">
<path d="M0 0 C1.15037782 -0.00424107 1.15037782 -0.00424107 2.32399559 -0.00856781 C6.3985361 -0.02341516 10.47304265 -0.03273027 14.54760742 -0.03710938 C17.82311415 -0.04144907 21.09835078 -0.05518528 24.3737793 -0.078125 C85.59486083 -0.49770291 146.80654576 7.41960593 205.19921875 26.203125 C206.17745605 26.51507812 207.15569336 26.82703125 208.16357422 27.1484375 C226.7808445 33.11081145 245.47043022 39.38357002 262.828125 48.46875 C265.9682802 50.08431073 269.13737463 51.56705036 272.3503418 53.02856445 C281.29534811 57.11358202 289.73844488 61.80079541 298.12158203 66.93408203 C300.14839309 68.17208014 302.18626786 69.38985752 304.2265625 70.60546875 C314.4482801 76.76531941 323.85615234 83.79196666 333.19921875 91.203125 C333.79798828 91.67266602 334.39675781 92.14220703 335.01367188 92.62597656 C341.88030429 98.01443035 341.88030429 98.01443035 344.19921875 100.203125 C344.19921875 100.863125 344.19921875 101.523125 344.19921875 102.203125 C345.03453125 102.574375 345.03453125 102.574375 345.88671875 102.953125 C348.62332788 104.43237318 350.87572744 106.13779939 353.19921875 108.203125 C353.19921875 108.863125 353.19921875 109.523125 353.19921875 110.203125 C353.85921875 110.203125 354.51921875 110.203125 355.19921875 110.203125 C356.8203125 111.84765625 356.8203125 111.84765625 358.63671875 114.015625 C361.17261207 117.02775765 361.17261207 117.02775765 363.921875 119.83984375 C365.19921875 121.203125 365.19921875 121.203125 365.19921875 123.203125 C365.85921875 123.203125 366.51921875 123.203125 367.19921875 123.203125 C368.52441406 124.71264648 368.52441406 124.71264648 370.02734375 126.82421875 C370.58035156 127.59572266 371.13335938 128.36722656 371.703125 129.16210938 C372.27933594 129.98001953 372.85554687 130.79792969 373.44921875 131.640625 C374.00996094 132.42373047 374.57070313 133.20683594 375.1484375 134.01367188 C376.84859409 136.3989955 378.5279488 138.79748687 380.19921875 141.203125 C380.72773437 141.95940186 381.25625 142.71567871 381.80078125 143.49487305 C385.24156588 148.51905175 388.1236885 153.62513572 390.69921875 159.140625 C391.08158691 159.95692383 391.46395508 160.77322266 391.85791016 161.61425781 C394.38410353 167.13386821 396.62432007 172.70482874 398.57421875 178.453125 C398.80044922 179.11175537 399.02667969 179.77038574 399.25976562 180.44897461 C403.25719793 192.86292261 404.69730901 204.93915847 404.59033203 217.89160156 C404.57422818 220.20177199 404.59029524 222.510194 404.609375 224.8203125 C404.62996592 238.27728525 402.4021756 250.79398672 398.07421875 263.578125 C397.77563965 264.46314697 397.47706055 265.34816895 397.16943359 266.26000977 C393.02291517 278.07705703 386.90755483 288.69861029 380.26171875 299.265625 C379.88418457 299.86818115 379.50665039 300.4707373 379.11767578 301.09155273 C378.20146327 302.50054803 377.20729069 303.85831867 376.19921875 305.203125 C375.53921875 305.203125 374.87921875 305.203125 374.19921875 305.203125 C373.99296875 305.88375 373.78671875 306.564375 373.57421875 307.265625 C372.02346278 310.57860366 370.07451151 312.8609265 367.63671875 315.5546875 C366.00647188 317.35272434 366.00647188 317.35272434 364.19921875 320.203125 C363.53921875 320.203125 362.87921875 320.203125 362.19921875 320.203125 C361.92843506 320.79843018 361.65765137 321.39373535 361.37866211 322.00708008 C360.21316362 324.17716059 359.05728909 325.60297124 357.328125 327.33984375 C356.75956787 327.91250977 356.19101074 328.48517578 355.60522461 329.07519531 C354.99686768 329.67428711 354.38851074 330.27337891 353.76171875 330.890625 C353.13209229 331.51420898 352.50246582 332.13779297 351.85375977 332.78027344 C346.57247152 337.95121439 341.04585963 342.67962774 335.19921875 347.203125 C333.69294922 348.40001953 333.69294922 348.40001953 332.15625 349.62109375 C313.99694525 363.96180086 294.05545499 376.21459968 273.19921875 386.203125 C271.60499621 387.0094831 270.01129032 387.81686308 268.41796875 388.625 C263.46068118 391.10829153 258.42809229 393.35236144 253.32421875 395.515625 C251.96574829 396.09256104 251.96574829 396.09256104 250.57983398 396.68115234 C247.78883134 397.86128134 244.99461845 399.03345394 242.19921875 400.203125 C241.35472168 400.55842285 240.51022461 400.9137207 239.64013672 401.27978516 C219.6815949 409.63553043 199.12995003 415.79316987 178.19921875 421.203125 C177.25836426 421.4491748 176.31750977 421.69522461 175.34814453 421.94873047 C156.81314876 426.75363661 138.07824751 430.10052493 119.19921875 433.203125 C118.20470703 433.36941406 117.21019531 433.53570312 116.18554688 433.70703125 C85.04968274 438.84618503 53.94521335 439.65315678 22.46734619 439.46740723 C18.57218935 439.44817838 14.67707934 439.44424127 10.78188133 439.4406929 C6.05378556 439.43550656 1.3257299 439.42105859 -3.40234375 439.40625 C-4.27154072 439.40436928 -5.14073769 439.40248856 -6.03627396 439.40055084 C-53.02585247 439.26873923 -101.71130899 432.19726861 -146.78564453 418.79882812 C-148.79571184 418.20462359 -150.81071467 417.63122502 -152.828125 417.0625 C-201.8368751 403.13889202 -249.9612772 382.1151282 -290.11328125 350.328125 C-293.17658032 347.90598155 -296.32297408 345.61831194 -299.5078125 343.359375 C-299.93449219 342.9778125 -300.36117187 342.59625 -300.80078125 342.203125 C-300.80078125 341.543125 -300.80078125 340.883125 -300.80078125 340.203125 C-301.3834375 339.935 -301.96609375 339.666875 -302.56640625 339.390625 C-304.82864726 338.18831509 -306.60654443 336.86486587 -308.55078125 335.203125 C-309.164375 334.6875 -309.77796875 334.171875 -310.41015625 333.640625 C-311.80078125 332.203125 -311.80078125 332.203125 -311.80078125 330.203125 C-313.12078125 329.543125 -314.44078125 328.883125 -315.80078125 328.203125 C-315.80078125 327.543125 -315.80078125 326.883125 -315.80078125 326.203125 C-316.46078125 326.203125 -317.12078125 326.203125 -317.80078125 326.203125 C-319.52734375 324.5234375 -319.52734375 324.5234375 -321.42578125 322.328125 C-322.05742187 321.60882813 -322.6890625 320.88953125 -323.33984375 320.1484375 C-324.80078125 318.203125 -324.80078125 318.203125 -324.80078125 316.203125 C-325.46078125 316.203125 -326.12078125 316.203125 -326.80078125 316.203125 C-328.0625 314.82055664 -328.0625 314.82055664 -329.48828125 312.86328125 C-330.01744141 312.13826416 -330.54660156 311.41324707 -331.09179688 310.66625977 C-331.65576172 309.87405029 -332.21972656 309.08184082 -332.80078125 308.265625 C-333.38021484 307.45601318 -333.95964844 306.64640137 -334.55664062 305.81225586 C-357.71753741 272.99780048 -369.22826965 235.54963356 -362.67358398 195.34130859 C-357.9904532 171.11029839 -345.82060189 145.96812617 -329.80078125 127.203125 C-329.14078125 127.203125 -328.48078125 127.203125 -327.80078125 127.203125 C-327.55199219 126.63722656 -327.30320312 126.07132812 -327.046875 125.48828125 C-322.34007501 116.8566888 -313.11773796 108.78213223 -305.80078125 102.203125 C-305.14078125 102.203125 -304.48078125 102.203125 -303.80078125 102.203125 C-303.80078125 101.543125 -303.80078125 100.883125 -303.80078125 100.203125 C-301.77490621 98.45364371 -299.74177028 96.81982191 -297.61328125 95.203125 C-296.97543701 94.71255615 -296.33759277 94.2219873 -295.68041992 93.71655273 C-294.35756021 92.69940896 -293.03307655 91.68437396 -291.70703125 90.67138672 C-290.00281176 89.3587361 -288.3197565 88.02508928 -286.64453125 86.67578125 C-277.50756805 79.41095355 -267.75269417 73.28507841 -257.80078125 67.203125 C-256.74117187 66.54546143 -256.74117187 66.54546143 -255.66015625 65.87451172 C-192.74030736 26.86480579 -115.74369385 9.49433671 -42.98828125 2.015625 C-42.29226807 1.94384033 -41.59625488 1.87205566 -40.87915039 1.7980957 C-27.27417498 0.49823712 -13.65929645 0.03516061 0 0 Z " fill="#271E1E" transform="translate(363.80078125,-0.203125)"/>
<path d="M0 0 C2.58137934 0.00502498 5.16275963 0.00958612 7.74414062 0.01367188 C14.01694802 0.02459854 20.2897195 0.04125756 26.5625 0.0625 C25.5625 2.0625 25.5625 2.0625 23.41479492 2.90942383 C21.99324097 3.335177 21.99324097 3.335177 20.54296875 3.76953125 C19.47135498 4.10218994 18.39974121 4.43484863 17.2956543 4.77758789 C16.12558838 5.13973389 14.95552246 5.50187988 13.75 5.875 C-12.05998465 14.16568967 -39.53068048 25.82327378 -59.81005859 44.21411133 C-66.93433345 50.53946924 -73.55959633 53.37090598 -82.6875 55.875 C-83.97629639 56.24840526 -85.26446275 56.62399163 -86.55200195 57.00170898 C-90.17334876 58.04987807 -93.80272627 59.06205525 -97.4375 60.0625 C-99.15503872 60.54655294 -100.87250107 61.03087702 -102.58984375 61.515625 C-111.77501841 64.0625 -111.77501841 64.0625 -114.4375 64.0625 C-113.2920847 69.1728144 -111.98271255 73.43484081 -109.4375 78.0625 C-104.34684528 77.49542323 -100.0678026 76.34410983 -95.25 74.5 C-91.26124125 72.97450505 -88.73572889 72.0625 -84.4375 72.0625 C-85.51273423 75.77694553 -86.92903983 79.04753642 -88.75 82.4375 C-96.57359933 97.83008448 -98.82002437 114.35318283 -98.6875 131.4375 C-98.68000732 132.71391357 -98.67251465 133.99032715 -98.66479492 135.30541992 C-98.39568907 158.84992714 -92.68963401 183.76402788 -78.5 203.0625 C-73.45252143 210.00643609 -73.38313854 216.92739018 -73.4375 225.30078125 C-73.4375 226.54214844 -73.4375 227.78351563 -73.4375 229.0625 C-71.69266687 230.80733313 -69.43850839 230.09758864 -67.11767578 230.09814453 C-60.91698218 230.17452486 -56.29505987 230.25392857 -51.5625 234.6875 C-50.89605469 235.40164063 -50.22960937 236.11578125 -49.54296875 236.8515625 C-46.0059529 240.56575725 -41.68563899 243.22449483 -37.4375 246.0625 C-38.4375 248.0625 -38.4375 248.0625 -40.85839844 248.9921875 C-42.43669434 249.46011719 -42.43669434 249.46011719 -44.046875 249.9375 C-45.19414062 250.28296875 -46.34140625 250.6284375 -47.5234375 250.984375 C-48.73257812 251.34015625 -49.94171875 251.6959375 -51.1875 252.0625 C-53.5578405 252.76899458 -55.92765304 253.47726344 -58.296875 254.1875 C-59.35358398 254.49945313 -60.41029297 254.81140625 -61.49902344 255.1328125 C-64.18824695 255.98364028 -66.81863097 257.01495239 -69.4375 258.0625 C-69.4375 262.0225 -69.4375 265.9825 -69.4375 270.0625 C-64.27104012 271.09579198 -62.50966611 270.79696802 -57.625 269.33203125 C-56.9748291 269.14033859 -56.3246582 268.94864594 -55.65478516 268.75114441 C-53.57903167 268.13634021 -51.50840008 267.50593583 -49.4375 266.875 C-48.07712851 266.46967607 -46.71645327 266.0653701 -45.35546875 265.66210938 C-44.00769971 265.26079527 -42.66004285 264.85910421 -41.3125 264.45703125 C-40.31512817 264.15951462 -40.31512817 264.15951462 -39.29760742 263.85598755 C-36.11710737 262.8990225 -32.96602853 261.90230917 -29.8203125 260.83349609 C-20.26989629 257.63118419 -14.92375973 257.79304018 -5.5 261.6875 C28.26679274 274.89707256 64.55771912 279.10063085 100.5625 280.0625 C101.51125 280.09118164 102.46 280.11986328 103.4375 280.14941406 C138.98565737 281.10332182 175.39851467 276.87426129 209.94970703 268.67724609 C212.3981212 268.10117556 214.85148102 267.55704073 217.30859375 267.01953125 C246.13631042 260.50431675 275.21554102 250.00307314 299.5625 233.0625 C299.5625 240.56049534 289.6213025 249.29772169 284.6875 254.75 C284.2236792 255.2668335 283.7598584 255.78366699 283.28198242 256.31616211 C281.05492791 258.72463512 279.72997643 260.00667452 276.5625 261.0625 C276.5625 261.7225 276.5625 262.3825 276.5625 263.0625 C252.65681197 285.69972295 220.83591179 301.07814219 190.5625 313.0625 C189.89089844 313.32869141 189.21929688 313.59488281 188.52734375 313.86914062 C177.03334739 318.38219089 165.33707761 322.34994342 153.5625 326.0625 C152.67643066 326.34206543 151.79036133 326.62163086 150.87744141 326.90966797 C115.03292374 338.0070218 77.77636649 343.93488163 40.5625 348.0625 C38.62358887 348.28075439 38.62358887 348.28075439 36.64550781 348.50341797 C4.53172391 351.92567657 -29.3620648 351.76614968 -61.4375 348.0625 C-62.36498047 347.96066406 -63.29246094 347.85882813 -64.24804688 347.75390625 C-111.46745917 342.4747173 -159.10741734 332.33250695 -203.4375 315.0625 C-204.49453125 314.65902344 -205.5515625 314.25554687 -206.640625 313.83984375 C-252.56315559 295.53643513 -294.82340025 267.19213955 -316.21875 221.3203125 C-317.80675385 217.61767088 -319.18609421 213.88843643 -320.4375 210.0625 C-320.67871582 209.3494873 -320.91993164 208.63647461 -321.16845703 207.90185547 C-328.37216374 185.75010165 -327.9429828 159.33797012 -321.4375 137.0625 C-320.61572266 137.36994141 -320.61572266 137.36994141 -319.77734375 137.68359375 C-314.45034166 139.49390828 -309.69385787 140.24611503 -304.0625 140.4375 C-297.60164008 140.73176994 -292.79884667 142.1485569 -287.0234375 145.00390625 C-284.2365836 146.14474825 -282.4168997 146.42348529 -279.4375 146.0625 C-278.7775 145.4025 -278.1175 144.7425 -277.4375 144.0625 C-277.1075 145.0525 -276.7775 146.0425 -276.4375 147.0625 C-274.14891853 148.45369424 -274.14891853 148.45369424 -271.4375 149.625 C-266.53961592 151.85826817 -266.53961592 151.85826817 -265.4375 154.0625 C-266.21484375 155.796875 -266.21484375 155.796875 -267.375 157.8125 C-269.2689536 161.48162266 -270.13580335 163.8726799 -269.4375 168.0625 C-268.27023151 170.82973134 -266.9212254 173.45273301 -265.4375 176.0625 C-266.0975 176.0625 -266.7575 176.0625 -267.4375 176.0625 C-267.4375 179.95235665 -267.41317146 182.06790388 -264.625 184.91015625 C-263.19490755 186.07210637 -261.73675121 187.20054822 -260.25 188.2890625 C-256.68965847 191.77267253 -257.37346289 196.25464515 -257.29882812 200.98901367 C-257.12791741 208.68426884 -256.21833434 214.11217198 -251.8125 220.66796875 C-249.10617408 225.38097383 -249.3048602 230.71414519 -249.2265625 236.03515625 C-249.19820313 237.34677734 -249.16984375 238.65839844 -249.140625 240.00976562 C-249.0993193 242.07234609 -249.06237686 244.13467933 -249.03613281 246.19750977 C-249.0084444 248.20611325 -248.96147778 250.21442161 -248.9140625 252.22265625 C-248.8843335 254.01135132 -248.8843335 254.01135132 -248.85400391 255.83618164 C-248.39865506 259.36340029 -247.57801262 261.24674779 -245.4375 264.0625 C-240.69245679 266.87079088 -236.51707831 267.45785184 -231.0625 267.75390625 C-226.95108133 266.67098794 -224.13377813 264.32162707 -221.4375 261.0625 C-220.4913812 258.19337863 -220.52501653 255.52457977 -220.60546875 252.5234375 C-220.59792068 251.72016022 -220.59037262 250.91688293 -220.58259583 250.08926392 C-220.56415974 247.53751758 -220.59245459 244.9890599 -220.625 242.4375 C-220.63101684 239.87962042 -220.62720766 237.32216323 -220.61384583 234.76431274 C-220.60837084 233.17720624 -220.61555358 231.58999216 -220.63700867 230.00302124 C-220.65160795 226.13850285 -220.50098347 223.36502777 -218.4375 220.0625 C-215.52373857 211.90490921 -215.52373857 211.90490921 -216.4375 203.6875 C-217.94934464 199.71890781 -217.36572079 196.15127424 -216.4375 192.0625 C-214.89863818 189.13866255 -213.7605726 188.24373585 -210.875 186.625 C-207.83351296 184.67532882 -207.54869829 183.45756542 -206.4375 180.0625 C-206.00463888 177.9275862 -205.63228672 175.77975338 -205.3125 173.625 C-205.14492187 172.53316406 -204.97734375 171.44132813 -204.8046875 170.31640625 C-204.22697159 165.19685994 -203.83268231 161.4049192 -206.5 156.875 C-207.66015625 154.89453125 -207.66015625 154.89453125 -208.4375 153.0625 C-208.1075 152.0725 -207.7775 151.0825 -207.4375 150.0625 C-205.4575 149.4025 -203.4775 148.7425 -201.4375 148.0625 C-201.7675 138.4925 -202.0975 128.9225 -202.4375 119.0625 C-205.7375 118.7325 -209.0375 118.4025 -212.4375 118.0625 C-215.80859375 116.43359375 -215.80859375 116.43359375 -218.875 114.5 C-224.66027834 111.22984621 -229.7574601 110.3807672 -236.375 110.375 C-237.16769287 110.36847412 -237.96038574 110.36194824 -238.77709961 110.35522461 C-244.37780816 110.52608968 -247.84338935 111.84134196 -252.4375 115.0625 C-253.0975 116.0525 -253.7575 117.0425 -254.4375 118.0625 C-261.01479792 119.40231995 -270.42981783 120.84491489 -276.66015625 118.07397461 C-280.10419197 116.81969894 -283.04467126 116.73886614 -286.70703125 116.6484375 C-287.38803391 116.62907135 -288.06903656 116.6097052 -288.77067566 116.5897522 C-290.93032593 116.53031868 -293.09003057 116.483718 -295.25 116.4375 C-296.72072544 116.39928672 -298.19142929 116.36023306 -299.66210938 116.3203125 C-303.25370789 116.22464817 -306.84546913 116.14048425 -310.4375 116.0625 C-306.27886208 105.35508774 -298.25676698 97.24829512 -290.4375 89.0625 C-289.695 88.26714844 -288.9525 87.47179687 -288.1875 86.65234375 C-273.05801879 70.88319697 -252.99993196 58.56287353 -233.4375 49.0625 C-232.58768555 48.64790527 -231.73787109 48.23331055 -230.86230469 47.80615234 C-202.61071318 34.15203533 -172.60459519 23.77914532 -141.8984375 17.265625 C-138.25279068 16.49186634 -134.65177214 15.60361019 -131.04718018 14.6572876 C-120.8166875 11.99403082 -110.49682966 10.22211481 -100.0625 8.5625 C-99.13417358 8.41286804 -98.20584717 8.26323608 -97.24938965 8.10906982 C-84.4254447 6.04720751 -71.58852197 4.19583855 -58.6875 2.6875 C-58.01309875 2.60814209 -57.33869751 2.52878418 -56.64385986 2.44702148 C-52.24604413 1.93599099 -47.84495268 1.48176217 -43.4375 1.0625 C-42.35525146 0.95719971 -41.27300293 0.85189941 -40.15795898 0.7434082 C-26.80334989 -0.35195582 -13.38781693 -0.04549883 0 0 Z " fill="#FCCF02" transform="translate(416.4375,40.9375)"/>
<path d="M0 0 C3.07255089 1.34006531 5.83117908 2.93475401 8.68798828 4.69580078 C12.46911303 6.86417031 12.46911303 6.86417031 19.86376953 7.32470703 C20.35876953 19.69970703 20.35876953 19.69970703 20.86376953 32.32470703 C18.55376953 33.64470703 16.24376953 34.96470703 13.86376953 36.32470703 C14.27161211 39.6894083 15.18126754 41.95746257 16.98876953 44.76220703 C18.55591301 47.39500807 18.86650325 48.19075489 18.80126953 51.38720703 C16.29474722 59.24097694 12.46719089 62.64555312 5.86376953 67.32470703 C8.83376953 66.33470703 8.83376953 66.33470703 11.86376953 65.32470703 C11.20376953 66.97470703 10.54376953 68.62470703 9.86376953 70.32470703 C12.53112226 67.83517782 14.42123296 65.6906257 15.86376953 62.32470703 C16.86376953 65.32470703 16.86376953 65.32470703 15.80126953 68.32470703 C13.86376953 71.32470703 13.86376953 71.32470703 10.80126953 72.69970703 C7.49677919 74.1143596 7.49677919 74.1143596 6.48876953 77.94970703 C5.35372046 84.23880544 4.86011836 90.50513289 7.86376953 96.32470703 C7.39197266 96.72431641 6.92017578 97.12392578 6.43408203 97.53564453 C4.55057725 99.68152808 4.23821565 101.16188958 3.73876953 103.94970703 C2.94710286 108.2413737 2.94710286 108.2413737 1.86376953 109.32470703 C1.81511132 112.14384239 1.82313734 114.94403494 1.86376953 117.76220703 C1.89769231 124.59960431 1.87378273 131.42908839 1.61376953 138.26220703 C1.59958984 139.01236084 1.58541016 139.76251465 1.57080078 140.53540039 C1.41124605 144.01409245 1.09061988 146.01987688 -1.01123047 148.84423828 C-3.13623047 150.32470703 -3.13623047 150.32470703 -5.88623047 150.07470703 C-6.99998047 149.70345703 -6.99998047 149.70345703 -8.13623047 149.32470703 C-8.13623047 147.67470703 -8.13623047 146.02470703 -8.13623047 144.32470703 C-6.19873047 143.76220703 -6.19873047 143.76220703 -4.13623047 143.32470703 C-3.80623047 143.65470703 -3.47623047 143.98470703 -3.13623047 144.32470703 C-2.80623047 135.41470703 -2.47623047 126.50470703 -2.13623047 117.32470703 C-2.79623047 117.32470703 -3.45623047 117.32470703 -4.13623047 117.32470703 C-4.13623047 121.94470703 -4.13623047 126.56470703 -4.13623047 131.32470703 C-4.79623047 131.32470703 -5.45623047 131.32470703 -6.13623047 131.32470703 C-6.79623047 134.29470703 -7.45623047 137.26470703 -8.13623047 140.32470703 C-8.46623047 140.32470703 -8.79623047 140.32470703 -9.13623047 140.32470703 C-9.79623047 133.39470703 -10.45623047 126.46470703 -11.13623047 119.32470703 C-11.13623047 126.25470703 -11.13623047 133.18470703 -11.13623047 140.32470703 C-11.79623047 140.65470703 -12.45623047 140.98470703 -13.13623047 141.32470703 C-13.13623047 137.36470703 -13.13623047 133.40470703 -13.13623047 129.32470703 C-14.12623047 129.65470703 -15.11623047 129.98470703 -16.13623047 130.32470703 C-16.26900391 129.40947266 -16.40177734 128.49423828 -16.53857422 127.55126953 C-16.71517578 126.36275391 -16.89177734 125.17423828 -17.07373047 123.94970703 C-17.24775391 122.76634766 -17.42177734 121.58298828 -17.60107422 120.36376953 C-17.97085833 117.41768323 -17.97085833 117.41768323 -19.13623047 115.32470703 C-19.19497823 118.65796458 -19.23007514 121.99108641 -19.26123047 125.32470703 C-19.27798828 126.25927734 -19.29474609 127.19384766 -19.31201172 128.15673828 C-19.35229192 133.91680666 -18.79039702 138.80213523 -17.13623047 144.32470703 C-16.47623047 144.32470703 -15.81623047 144.32470703 -15.13623047 144.32470703 C-15.46623047 145.64470703 -15.79623047 146.96470703 -16.13623047 148.32470703 C-21.01123047 147.44970703 -21.01123047 147.44970703 -22.13623047 146.32470703 C-22.27065637 144.28581969 -22.33990717 142.24258067 -22.38232422 140.19970703 C-22.43163086 138.30285156 -22.43163086 138.30285156 -22.48193359 136.36767578 C-22.54425498 133.70367875 -22.59978686 131.0396821 -22.65380859 128.37548828 C-22.89922742 119.21627246 -23.34824331 111.03219326 -27.69873047 102.82470703 C-28.13314453 101.98939453 -28.56755859 101.15408203 -29.01513672 100.29345703 C-29.98586454 98.38688584 -29.98586454 98.38688584 -31.13623047 97.32470703 C-31.16275714 93.82697635 -31.10763085 90.34221148 -31.00927734 86.84619141 C-30.94198915 82.2824689 -31.19451506 78.55828326 -33.13623047 74.32470703 C-36.12994152 71.93855701 -36.12994152 71.93855701 -39.13623047 70.32470703 C-38.47623047 68.34470703 -37.81623047 66.36470703 -37.13623047 64.32470703 C-35.81623047 64.98470703 -34.49623047 65.64470703 -33.13623047 66.32470703 C-33.13623047 66.98470703 -33.13623047 67.64470703 -33.13623047 68.32470703 C-32.47623047 68.32470703 -31.81623047 68.32470703 -31.13623047 68.32470703 C-34.89781094 63.63834357 -34.89781094 63.63834357 -39.38623047 59.69970703 C-41.81160562 57.79405513 -42.39013828 56.30907577 -43.13623047 53.32470703 C-42.85905767 48.24320578 -41.38252965 44.81730539 -39.13623047 40.32470703 C-40.48717628 36.2718696 -42.51618465 35.45414575 -46.13623047 33.32470703 C-48.36225662 32.55531022 -48.36225662 32.55531022 -50.13623047 32.32470703 C-49.37633846 26.82840074 -48.49517607 21.35856586 -47.57373047 15.88720703 C-47.43515625 15.06027344 -47.29658203 14.23333984 -47.15380859 13.38134766 C-46.81536258 11.36234214 -46.47590154 9.34350681 -46.13623047 7.32470703 C-45.14623047 7.32212891 -44.15623047 7.31955078 -43.13623047 7.31689453 C-34.840916 7.13211092 -29.2899265 6.29192743 -23.13623047 0.32470703 C-17.28757175 -2.59962233 -6.18914976 -1.95647866 0 0 Z M92.859375 27.33203125 C89.74155014 29.24314242 86.55938114 29.1947511 83 29.3125 C82.30261719 29.34666016 81.60523438 29.38082031 80.88671875 29.41601562 C79.17502892 29.49808295 77.4625424 29.56322919 75.75 29.625 C75.07727653 33.04050296 74.41288201 36.45757452 73.75 39.875 C73.46382813 41.32712891 73.46382813 41.32712891 73.171875 42.80859375 C72.99140625 43.74316406 72.8109375 44.67773438 72.625 45.640625 C72.45742187 46.49946289 72.28984375 47.35830078 72.1171875 48.24316406 C71.64842555 50.88222106 71.64842555 50.88222106 71.75 54.625 C72.45125 54.8725 73.1525 55.12 73.875 55.375 C77.12002459 56.78588026 79.85316737 58.60395398 82.75 60.625 C80.93905473 66.31654229 80.93905473 66.31654229 79.5625 68.5625 C78.28323496 71.80986511 78.98674454 74.27841836 79.75 77.625 C81.64570305 81.94299028 84.61794859 84.40760024 88.2265625 87.29296875 C89.75 88.625 89.75 88.625 90.75 90.625 C90.09 90.625 89.43 90.625 88.75 90.625 C88.42 89.635 88.09 88.645 87.75 87.625 C86.76 87.295 85.77 86.965 84.75 86.625 C84.09 88.605 83.43 90.585 82.75 92.625 C83.69875 93.16125 84.6475 93.6975 85.625 94.25 C89.30545113 97.04714286 89.70483733 98.20472666 90.75 102.625 C90.93864643 106.23396486 90.75008441 109.82835565 90.58398438 113.43554688 C90.46319943 118.11283992 90.88676129 120.73181931 93.75 124.625 C94.47817595 125.90558529 95.18822217 127.19674442 95.875 128.5 C96.20757812 129.11617188 96.54015625 129.73234375 96.8828125 130.3671875 C98.8633759 135.52378951 98.87859795 141.11778238 98.9609375 146.58203125 C98.98929688 147.85884766 99.01765625 149.13566406 99.046875 150.45117188 C99.08618309 152.45686712 99.12532579 154.4625945 99.15136719 156.46850586 C99.17885533 158.42324457 99.22584292 160.37767873 99.2734375 162.33203125 C99.29325684 163.4919458 99.31307617 164.65186035 99.33349609 165.84692383 C99.47094238 166.76368896 99.60838867 167.6804541 99.75 168.625 C102.56509993 170.9023501 102.56509993 170.9023501 105.75 170.625 C106.08 169.305 106.41 167.985 106.75 166.625 C106.09 166.625 105.43 166.625 104.75 166.625 C102.81368829 160.16046326 102.50443559 154.34878423 102.625 147.625 C102.63402344 146.65949219 102.64304687 145.69398438 102.65234375 144.69921875 C102.67569365 142.34087901 102.70843953 139.98307714 102.75 137.625 C104.26095593 142.69223024 105.19880349 147.38863313 105.75 152.625 C106.74 152.295 107.73 151.965 108.75 151.625 C108.75 155.585 108.75 159.545 108.75 163.625 C109.41 163.295 110.07 162.965 110.75 162.625 C110.75 155.035 110.75 147.445 110.75 139.625 C111.41 147.215 112.07 154.805 112.75 162.625 C114.39350079 159.33799843 115.16321669 157.14569985 115.75 153.625 C116.41 153.625 117.07 153.625 117.75 153.625 C117.75 149.005 117.75 144.385 117.75 139.625 C118.41 139.625 119.07 139.625 119.75 139.625 C119.89340315 148.6593984 119.33535064 157.61478127 118.75 166.625 C118.110625 166.439375 117.47125 166.25375 116.8125 166.0625 C116.131875 165.918125 115.45125 165.77375 114.75 165.625 C113.45366379 166.69145115 113.45366379 166.69145115 113.6875 169.1875 C113.708125 169.991875 113.72875 170.79625 113.75 171.625 C116.04294488 172.48474801 116.04294488 172.48474801 118.75 172.625 C121.10401121 171.37515497 121.10401121 171.37515497 122.75 168.625 C123.41013719 165.01063186 123.44810397 161.41731936 123.5 157.75 C123.5455603 156.20747559 123.5455603 156.20747559 123.59204102 154.63378906 C123.77572715 147.81116124 123.79784342 140.99426423 123.58984375 134.171875 C123.75 131.625 123.75 131.625 125.75 128.625 C125.894375 127.47 126.03875 126.315 126.1875 125.125 C126.74438509 121.65993722 127.01204915 120.6487028 129.75 118.625 C129.255 117.6659375 129.255 117.6659375 128.75 116.6875 C126.59933691 110.10109429 127.31775517 103.03728182 129.75 96.625 C132.6875 95 132.6875 95 135.75 93.625 C137.77656383 90.74047725 137.77656383 90.74047725 138.75 87.625 C138.42 86.635 138.09 85.645 137.75 84.625 C137.22599609 85.49125 137.22599609 85.49125 136.69140625 86.375 C136.23636719 87.1175 135.78132813 87.86 135.3125 88.625 C134.86003906 89.3675 134.40757812 90.11 133.94140625 90.875 C133.54824219 91.4525 133.15507812 92.03 132.75 92.625 C132.42 92.625 132.09 92.625 131.75 92.625 C132.41 90.975 133.07 89.325 133.75 87.625 C131.77 88.12 131.77 88.12 129.75 88.625 C130.20890625 88.2846875 130.6678125 87.944375 131.140625 87.59375 C135.78390441 83.92594946 138.93727937 80.33745515 140.75 74.625 C140.75 70.46998936 138.54869305 67.07527839 136.58984375 63.4921875 C135.75 61.625 135.75 61.625 135.75 58.625 C138.06 57.305 140.37 55.985 142.75 54.625 C142.255 42.25 142.255 42.25 141.75 29.625 C136.8 28.635 136.8 28.635 131.75 27.625 C128.81640625 26.1171875 128.81640625 26.1171875 126.3125 24.5 C120.76301356 21.55566909 116.03864165 21.02949958 109.875 21 C109.06619385 20.98952637 108.2573877 20.97905273 107.42407227 20.96826172 C101.12825816 21.11584537 97.56812692 23.08053417 92.859375 27.33203125 Z " fill="#5D423E" transform="translate(70.25,132.375)"/>
<path d="M0 0 C5.94 0 11.88 0 18 0 C18 23.43 18 46.86 18 71 C13.38 71.33 8.76 71.66 4 72 C0.25457293 72.87811448 -3.28948835 73.7876732 -6.9375 74.9375 C-7.81728516 75.20240234 -8.69707031 75.46730469 -9.60351562 75.74023438 C-13.25709076 76.84149898 -16.89068488 77.96283042 -20.50390625 79.19140625 C-24 80 -24 80 -34 80 C-34 56.24 -34 32.48 -34 8 C-28.06 7.67 -22.12 7.34 -16 7 C-12.79736803 6.40753688 -9.94337505 5.85155278 -6.875 4.9375 C-6.19308594 4.75123047 -5.51117188 4.56496094 -4.80859375 4.37304688 C-3.20118846 3.93157641 -1.59971252 3.46858064 0 3 C0 2.01 0 1.02 0 0 Z " fill="#DCC7AA" transform="translate(507,229)"/>
<path d="M0 0 C0.33 12.87 0.66 25.74 1 39 C-10.25 42.375 -10.25 42.375 -14.625 43.1875 C-15.46289062 43.34605469 -16.30078125 43.50460938 -17.1640625 43.66796875 C-17.76992188 43.77753906 -18.37578125 43.88710937 -19 44 C-13.78877261 49.77074865 -7.30109424 53.71927152 -0.86523438 58.00390625 C0.01455078 58.60332031 0.89433594 59.20273438 1.80078125 59.8203125 C2.60684814 60.35930176 3.41291504 60.89829102 4.2434082 61.45361328 C4.8230835 61.9639209 5.40275879 62.47422852 6 63 C6 66 6 66 4 68.1875 C3.34 68.785625 2.68 69.38375 2 70 C-2.20883306 68.51398443 -5.60260009 66.40529801 -9.2890625 63.90234375 C-10.16671768 63.31085289 -10.16671768 63.31085289 -11.06210327 62.70741272 C-12.91943128 61.45518796 -14.77256676 60.1969522 -16.625 58.9375 C-18.4848511 57.67490838 -20.34560828 56.41376239 -22.20932007 55.15687561 C-23.8954122 54.01958086 -25.57792678 52.87698758 -27.26025391 51.73413086 C-29.93266046 49.88901525 -29.93266046 49.88901525 -33 49 C-33 59.56 -33 70.12 -33 81 C-38.61 81 -44.22 81 -50 81 C-50 58.56 -50 36.12 -50 13 C-35.5658363 8.55871886 -35.5658363 8.55871886 -29.25 7.0625 C-22.61957819 5.46634804 -16.09373742 3.60411463 -9.58300781 1.57446289 C-6.18981198 0.53900925 -3.58813352 0 0 0 Z " fill="#DCC8AB" transform="translate(430,101)"/>
<path d="M0 0 C5.28 0 10.56 0 16 0 C16 13.53 16 27.06 16 41 C11.38 41.33 6.76 41.66 2 42 C-1.0227608 42.73945223 -3.73521154 43.46157499 -6.625 44.5 C-7.95029002 44.94859914 -9.27580377 45.39653797 -10.6015625 45.84375 C-12.28378906 46.41609375 -12.28378906 46.41609375 -14 47 C-15.98 47.495 -15.98 47.495 -18 48 C-18.33 59.22 -18.66 70.44 -19 82 C-24.94 82 -30.88 82 -37 82 C-37 58.24 -37 34.48 -37 10 C-29.08 9.505 -29.08 9.505 -21 9 C-17.36605204 8.09276956 -14.0998103 7.20240139 -10.625 5.9375 C-2.10154462 3 -2.10154462 3 0 3 C0 2.01 0 1.02 0 0 Z " fill="#DCC8AB" transform="translate(576,226)"/>
<path d="M0 0 C5.61 0 11.22 0 17 0 C17 23.76 17 47.52 17 72 C11.72 72.66 6.44 73.32 1 74 C-3.45168443 75.13625683 -3.45168443 75.13625683 -7.86328125 76.4140625 C-10 77 -10 77 -13 77 C-13 77.99 -13 78.98 -13 80 C-18.61 80 -24.22 80 -30 80 C-30 56.9 -30 33.8 -30 10 C-24.06 10 -18.12 10 -12 10 C-12 29.14 -12 48.28 -12 68 C-9.03 67.01 -6.06 66.02 -3 65 C-2.01 65 -1.02 65 0 65 C0 43.55 0 22.1 0 0 Z " fill="#DECAAC" transform="translate(477,102)"/>
<path d="M0 0 C1.49821059 3.37097383 2 5.20442119 2 9 C-1.78954026 10.1322462 -5.5819896 11.2544389 -9.375 12.375 C-10.43589844 12.69210938 -11.49679687 13.00921875 -12.58984375 13.3359375 C-13.64042969 13.6453125 -14.69101562 13.9546875 -15.7734375 14.2734375 C-16.72653809 14.55622559 -17.67963867 14.83901367 -18.66162109 15.13037109 C-23.06261021 16.27680398 -27.5404582 17.10809164 -32 18 C-32.33 27.57 -32.66 37.14 -33 47 C-30.03 46.01 -27.06 45.02 -24 44 C-21.15234375 43.48828125 -21.15234375 43.48828125 -18.9375 43.3125 C-16.9884375 43.1578125 -16.9884375 43.1578125 -15 43 C-15 41.35 -15 39.7 -15 38 C-10.05 38 -5.1 38 0 38 C0 53.51 0 69.02 0 85 C-10.07237868 88.14761834 -20.14056327 91.28884895 -30.25 94.3125 C-31.43207031 94.67150391 -32.61414063 95.03050781 -33.83203125 95.40039062 C-34.96511719 95.73876953 -36.09820312 96.07714844 -37.265625 96.42578125 C-38.27399414 96.72911377 -39.28236328 97.03244629 -40.32128906 97.3449707 C-43 98 -43 98 -47 98 C-47.33 95.36 -47.66 92.72 -48 90 C-42.79823763 87.63368104 -37.63851973 85.9211891 -32.125 84.4375 C-31.37347656 84.22931641 -30.62195313 84.02113281 -29.84765625 83.80664062 C-24.58385451 82.36654392 -19.34622489 81.18804998 -14 80 C-14 70.43 -14 60.86 -14 51 C-22.06573006 53.2878036 -22.06573006 53.2878036 -30.12231445 55.60742188 C-31.1505835 55.89166016 -32.17885254 56.17589844 -33.23828125 56.46875 C-34.26993408 56.76201172 -35.30158691 57.05527344 -36.36450195 57.35742188 C-40 58 -40 58 -51 58 C-51 42.16 -51 26.32 -51 10 C-42.585 9.505 -42.585 9.505 -34 9 C-29.30941145 8.17169717 -29.30941145 8.17169717 -25.41015625 6.93359375 C-24.72868027 6.73524429 -24.04720428 6.53689484 -23.34507751 6.33253479 C-21.24537707 5.71782698 -19.15417009 5.07893248 -17.0625 4.4375 C-14.91589159 3.79831558 -12.76783075 3.16426429 -10.61924744 2.53175354 C-8.70856266 1.96640936 -6.80153991 1.38873113 -4.89477539 0.81030273 C-2 0 -2 0 0 0 Z " fill="#DDC8AC" transform="translate(397,211)"/>
<path d="M0 0 C1.875 2.375 1.875 2.375 3 5 C2.67 5.99 2.34 6.98 2 8 C0.2409668 8.75195312 0.2409668 8.75195312 -2.05078125 9.28125 C-2.89576172 9.48363281 -3.74074219 9.68601562 -4.61132812 9.89453125 C-5.50271484 10.09433594 -6.39410156 10.29414062 -7.3125 10.5 C-9.03779438 10.90610574 -10.7630544 11.31235748 -12.48828125 11.71875 C-14.30714844 12.1415625 -16.12601562 12.564375 -18 13 C-21.96 13.99 -25.92 14.98 -30 16 C-30.33 43.06 -30.66 70.12 -31 98 C-36.61 98 -42.22 98 -48 98 C-48.33 72.92 -48.66 47.84 -49 22 C-57.91 24.97 -66.82 27.94 -76 31 C-77.32 30.67 -78.64 30.34 -80 30 C-81.75 26.4375 -81.75 26.4375 -83 23 C-76.73641913 20.06562902 -70.28052979 18.27774511 -63.625 16.4375 C-52.50150513 13.31361593 -41.42719536 10.05444663 -30.375 6.6875 C-29.67739563 6.47503632 -28.97979126 6.26257263 -28.26104736 6.04367065 C-26.89935487 5.6287784 -25.53774983 5.21359901 -24.17623901 4.79811096 C-22.26759851 4.21648523 -20.3579349 3.63822017 -18.44824219 3.06005859 C-16.29114494 2.39692377 -14.13955195 1.71528264 -11.99707031 1.00634766 C-11.12405273 0.72194824 -10.25103516 0.43754883 -9.3515625 0.14453125 C-8.62018066 -0.10321045 -7.88879883 -0.35095215 -7.13525391 -0.60620117 C-4.457136 -1.10011887 -2.5945835 -0.79652579 0 0 Z " fill="#DCC9AC" transform="translate(388,85)"/>
<path d="M0 0 C3.37503669 1.1858237 5.64722731 2.27573689 8 5 C6.501529 8.54184054 4.45084115 10.72776562 1.6875 13.375 C-1.01784279 16.00640255 -3.59158999 18.6055296 -5.9375 21.5625 C-6.618125 22.366875 -7.29875 23.17125 -8 24 C-8.66 24 -9.32 24 -10 24 C-10.20367188 24.53109375 -10.40734375 25.0621875 -10.6171875 25.609375 C-12.59505609 29.02874104 -15.30326899 31.51337921 -18.125 34.25 C-18.96998047 35.08144531 -18.96998047 35.08144531 -19.83203125 35.9296875 C-21.21686028 37.29104485 -22.60783204 38.64614859 -24 40 C-22.39626852 44.00517396 -19.57886014 46.6771098 -16.5546875 49.640625 C-16.02481232 50.16767029 -15.49493713 50.69471558 -14.94900513 51.23773193 C-13.26232175 52.91325675 -11.56880436 54.58167722 -9.875 56.25 C-8.72740612 57.38755851 -7.58026539 58.52557436 -6.43359375 59.6640625 C-3.62761863 62.44803465 -0.81549536 65.2256576 2 68 C0.3327868 71.77070649 -1.33478106 73.0709374 -5 75 C-20.7386172 59.45868465 -20.7386172 59.45868465 -25.80078125 53.3203125 C-26.98467997 51.85707409 -26.98467997 51.85707409 -29 51 C-29 61.89 -29 72.78 -29 84 C-34.61 84 -40.22 84 -46 84 C-46 59.91 -46 35.82 -46 11 C-40.39 11 -34.78 11 -29 11 C-29 16.94 -29 22.88 -29 29 C-19.70249844 21.24203482 -19.70249844 21.24203482 -12 12 C-11.34 12 -10.68 12 -10 12 C-9.67 11.01 -9.34 10.02 -9 9 C-8.34 9 -7.68 9 -7 9 C-6.67 8.01 -6.34 7.02 -6 6 C-5.34 6 -4.68 6 -4 6 C-3.67 5.01 -3.34 4.02 -3 3 C-2.34 3 -1.68 3 -1 3 C-0.67 2.01 -0.34 1.02 0 0 Z " fill="#DCC9AC" transform="translate(616,98)"/>
<path d="M0 0 C0.66 2.97 1.32 5.94 2 9 C-4.08193335 11.13993951 -10.22996113 12.95389072 -16.4375 14.6875 C-17.24300293 14.91397217 -18.04850586 15.14044434 -18.87841797 15.3737793 C-24.75471949 17 -24.75471949 17 -27 17 C-27 35.15 -27 53.3 -27 72 C-19.08 69.69 -11.16 67.38 -3 65 C-1.68 65 -0.36 65 1 65 C4 70.75 4 70.75 4 73 C-2.20175394 74.49407538 -8.40447023 75.98390285 -14.609375 77.46484375 C-18.14663233 78.31015176 -21.68002045 79.16394947 -25.203125 80.06640625 C-26.27046875 80.33324219 -27.3378125 80.60007812 -28.4375 80.875 C-29.30246094 81.09929687 -30.16742187 81.32359375 -31.05859375 81.5546875 C-35.32631733 82.20079705 -39.68364481 82 -44 82 C-44 58.24 -44 34.48 -44 10 C-37.07 9.01 -37.07 9.01 -30 8 C-25.92001887 6.89100325 -21.9465778 5.74686211 -17.9375 4.4375 C-15.96808974 3.80918263 -13.99805836 3.182808 -12.02734375 2.55859375 C-10.75491821 2.14565063 -10.75491821 2.14565063 -9.45678711 1.72436523 C-6.32410523 0.8007175 -3.27757107 0 0 0 Z " fill="#DDCAAD" transform="translate(553,100)"/>
<path d="M0 0 C0.99 3.465 0.99 3.465 2 7 C-7.08877241 10.40828965 -16.58300799 12.645752 -26 15 C-26.33 36.78 -26.66 58.56 -27 81 C-32.28 81 -37.56 81 -43 81 C-43 60.87 -43 40.74 -43 20 C-49.20570616 22.06481908 -49.20570616 22.06481908 -55.3984375 24.16796875 C-56.38070313 24.50441406 -57.36296875 24.84085938 -58.375 25.1875 C-59.37273437 25.53167969 -60.37046875 25.87585938 -61.3984375 26.23046875 C-64 27 -64 27 -67 27 C-67.99 24.03 -68.98 21.06 -70 18 C-66.6064026 16.99182252 -63.21047507 15.99321984 -59.8125 15 C-58.85279297 14.71382812 -57.89308594 14.42765625 -56.90429688 14.1328125 C-55.97294922 13.86210937 -55.04160156 13.59140625 -54.08203125 13.3125 C-53.22843018 13.06113281 -52.3748291 12.80976563 -51.49536133 12.55078125 C-48.91904455 11.98213135 -46.62952773 11.90116106 -44 12 C-44 10.68 -44 9.36 -44 8 C-43.22470947 7.97566895 -42.44941895 7.95133789 -41.65063477 7.92626953 C-32.90068463 7.47574602 -25.24244982 5.57722132 -16.9375 2.875 C-14.57454371 2.11324913 -12.20875327 1.36021814 -9.83984375 0.6171875 C-8.81238037 0.28315918 -7.78491699 -0.05086914 -6.72631836 -0.39501953 C-3.98818902 -1.0026209 -2.59698229 -0.95472158 0 0 Z " fill="#DCC8AC" transform="translate(472,227)"/>
<!-- The rest of the provided SVG continues exactly as supplied -->
</svg>
