<svg xmlns="http://www.w3.org/2000/svg" width="768" height="439"><path fill="#271e1e" d="m363.8-.203 2.325-.009q6.111-.022 12.223-.028 4.913-.007 9.827-.041C449.395-.701 510.607 7.216 569 26l2.964.945c18.618 5.963 37.307 12.235 54.665 21.32 3.14 1.616 6.31 3.099 9.522 4.56 8.945 4.085 17.388 8.773 25.771 13.906a647 647 0 0 0 6.105 3.671C678.25 76.562 687.657 83.59 697 91l1.814 1.423c6.867 5.388 6.867 5.388 9.186 7.577v2l1.688.75c2.736 1.48 4.989 3.185 7.312 5.25v2h2c1.621 1.645 1.621 1.645 3.438 3.813 2.535 3.012 2.535 3.012 5.285 5.824C729 121 729 121 729 123h2c1.325 1.51 1.325 1.51 2.828 3.621l1.676 2.338 1.746 2.478c.56.784 1.121 1.567 1.7 2.374 1.7 2.385 3.379 4.783 5.05 7.189l1.602 2.292c3.44 5.024 6.322 10.13 8.898 15.645l1.159 2.474c2.526 5.52 4.766 11.09 6.716 16.839l.686 1.996c3.997 12.414 5.437 24.49 5.33 37.442-.016 2.31 0 4.62.02 6.93.02 13.456-2.208 25.973-6.536 38.757l-.905 2.682c-4.146 11.817-10.262 22.438-16.908 33.005l-1.144 1.826c-.916 1.41-1.91 2.767-2.918 4.112h-2l-.625 2.063c-1.55 3.312-3.5 5.595-5.937 8.289-1.63 1.798-1.63 1.798-3.438 4.648h-2l-.82 1.804c-1.166 2.17-2.322 3.596-4.051 5.333l-1.723 1.735-1.843 1.815-1.908 1.89c-5.282 5.171-10.808 9.9-16.655 14.423l-3.043 2.418c-18.16 14.34-38.1 26.593-58.957 36.582q-2.391 1.21-4.781 2.422c-4.958 2.483-9.99 4.727-15.094 6.89l-2.744 1.166Q610.193 398.246 606 400l-2.56 1.077C583.483 409.432 562.93 415.59 542 421l-2.851.746C520.614 426.55 501.879 429.897 483 433l-3.014.504c-31.136 5.14-62.24 5.946-93.718 5.76-3.895-.019-7.79-.023-11.685-.026q-7.092-.01-14.185-.035l-2.633-.006c-46.99-.131-95.676-7.203-140.75-20.601a497 497 0 0 0-6.042-1.737c-49.01-13.923-97.133-34.947-137.285-66.734-3.064-2.422-6.21-4.71-9.395-6.969L63 342v-2l-1.766-.812c-2.262-1.203-4.04-2.526-5.984-4.188l-1.86-1.562C52 332 52 332 52 330l-4-2v-2h-2c-1.727-1.68-1.727-1.68-3.625-3.875l-1.914-2.18C39 318 39 318 39 316h-2c-1.262-1.383-1.262-1.383-2.687-3.34l-1.604-2.197-1.709-2.4-1.756-2.454C6.084 272.795-5.427 235.347 1.127 195.14 5.81 170.906 17.98 145.764 34 127h2l.754-1.715C41.46 116.654 50.683 108.58 58 102h2v-2a126 126 0 0 1 6.188-5l1.932-1.487q1.985-1.525 3.974-3.045a297 297 0 0 0 5.062-3.995C86.293 79.208 96.048 73.082 106 67l2.14-1.329c62.92-39.01 139.917-56.38 212.673-63.859l2.109-.217c13.605-1.3 27.22-1.763 40.879-1.798"/><path fill="#fccf02" d="M416.438 40.938q3.87.008 7.744.013 9.408.017 18.818.049c-1 2-1 2-3.148 2.847l-2.872.86-3.247 1.008-3.546 1.097c-25.81 8.291-53.28 19.949-73.56 38.34-7.124 6.325-13.75 9.156-22.877 11.66q-1.933.561-3.865 1.127A860 860 0 0 1 319 101l-5.152 1.453C304.662 105 304.662 105 302 105c1.145 5.11 2.455 9.372 5 14 5.09-.567 9.37-1.718 14.188-3.562C325.176 113.912 327.702 113 332 113c-1.075 3.714-2.492 6.985-4.312 10.375-7.824 15.393-10.07 31.916-9.938 49l.023 3.868c.269 23.544 5.975 48.459 20.164 67.757 5.048 6.944 5.117 13.865 5.063 22.238V270c1.745 1.745 3.999 1.035 6.32 1.036 6.2.076 10.822.155 15.555 4.589l2.02 2.164c3.537 3.714 7.857 6.373 12.105 9.211-1 2-1 2-3.42 2.93l-3.19.945-3.476 1.047L365.25 293q-3.555 1.06-7.11 2.125l-3.202.945c-2.689.851-5.32 1.882-7.938 2.93v12c5.166 1.033 6.928.734 11.813-.73l1.97-.581a835 835 0 0 0 6.217-1.877q2.04-.608 4.082-1.212l4.043-1.205 2.015-.602c3.18-.956 6.331-1.953 9.477-3.022 9.55-3.202 14.897-3.04 24.32.854C444.705 315.835 480.996 320.038 517 321l2.875.087c35.548.954 71.961-3.275 106.512-11.472 2.449-.576 4.902-1.12 7.36-1.658C662.573 301.442 691.652 290.941 716 274c0 7.498-9.941 16.235-14.875 21.688l-1.406 1.566c-2.227 2.408-3.552 3.69-6.719 4.746v2c-23.906 22.637-55.727 38.016-86 50l-2.035.807C593.47 359.32 581.775 363.287 570 367l-2.685.847C531.47 378.945 494.214 384.872 457 389l-3.917.44c-32.114 3.423-66.008 3.264-98.083-.44l-2.81-.309C304.97 383.412 257.33 373.27 213 356l-3.203-1.223c-45.923-18.303-88.183-46.647-109.578-92.52A135 135 0 0 1 96 251l-.731-2.16C88.065 226.687 88.495 200.274 95 178l1.66.621c5.327 1.81 10.084 2.563 15.715 2.754 6.46.294 11.264 1.711 17.04 4.566 2.786 1.141 4.606 1.42 7.585 1.059l2-2 1 3c2.289 1.391 2.289 1.391 5 2.563 4.898 2.233 4.898 2.233 6 4.437-.777 1.734-.777 1.734-1.937 3.75-1.894 3.67-2.761 6.06-2.063 10.25 1.167 2.767 2.516 5.39 4 8h-2c0 3.89.024 6.005 2.813 8.848q2.145 1.744 4.375 3.379c3.56 3.483 2.876 7.965 2.95 12.7.172 7.695 1.081 13.123 5.487 19.678 2.706 4.713 2.508 10.047 2.586 15.368l.086 3.974q.063 3.094.104 6.188c.028 2.009.075 4.017.122 6.025l.06 3.614c.456 3.527 1.276 5.41 3.417 8.226 4.745 2.808 8.92 3.395 14.375 3.691 4.111-1.083 6.929-3.432 9.625-6.691.946-2.87.912-5.538.832-8.54l.023-2.433c.018-2.552-.01-5.1-.042-7.652q-.01-3.837.01-7.673a281 281 0 0 0-.023-4.761c-.014-3.865.137-6.638 2.2-9.941 2.914-8.158 2.914-8.158 2-16.375-1.512-3.969-.928-7.536 0-11.625 1.539-2.924 2.677-3.819 5.563-5.437 3.041-1.95 3.326-3.168 4.437-6.563.433-2.135.805-4.283 1.125-6.437l.508-3.31c.578-5.119.972-8.91-1.696-13.44-1.16-1.981-1.16-1.981-1.937-3.813l1-3 6-2-1-29-10-1c-3.371-1.629-3.371-1.629-6.437-3.562-5.786-3.27-10.883-4.12-17.5-4.125l-2.403-.02c-5.6.17-9.066 1.486-13.66 4.707l-2 3c-6.577 1.34-15.992 2.782-22.223.011-3.444-1.254-6.384-1.335-10.047-1.425l-2.063-.059c-2.16-.06-4.32-.106-6.48-.152l-4.412-.117q-5.387-.143-10.775-.258c4.159-10.707 12.18-18.814 20-27l2.25-2.41C143.38 111.82 163.438 99.5 183 90l2.575-1.256c28.252-13.654 58.258-24.027 88.964-30.54 3.646-.775 7.247-1.663 10.851-2.61 10.23-2.662 20.55-4.434 30.985-6.094l2.813-.453c12.824-2.062 25.661-3.914 38.562-5.422l2.044-.24c4.397-.512 8.799-.966 13.206-1.385 1.082-.105 2.164-.21 3.28-.32 13.354-1.094 26.77-.788 40.158-.742"/><path fill="#5d423e" d="M70.25 132.375c3.073 1.34 5.831 2.935 8.688 4.696 3.781 2.168 3.781 2.168 11.176 2.629l1 25-7 4c.408 3.364 1.317 5.632 3.125 8.437 1.567 2.633 1.878 3.429 1.812 6.625-2.506 7.854-6.334 11.259-12.937 15.938l6-2-2 5c2.667-2.49 4.557-4.634 6-8 1 3 1 3-.063 6-1.937 3-1.937 3-5 4.375-3.304 1.414-3.304 1.414-4.312 5.25-1.135 6.289-1.629 12.555 1.375 18.375l-1.43 1.21c-1.883 2.147-2.196 3.627-2.695 6.415-.792 4.291-.792 4.291-1.875 5.375-.049 2.819-.04 5.619 0 8.437.034 6.838.01 13.667-.25 20.5l-.043 2.273c-.16 3.48-.48 5.485-2.582 8.31-2.125 1.48-2.125 1.48-4.875 1.23l-2.25-.75v-5c1.937-.563 1.937-.563 4-1l1 1 1-27h-2v14h-2l-2 9h-1l-2-21v21l-2 1v-12l-3 1-.403-2.774-.535-3.601-.527-3.586c-.37-2.946-.37-2.946-1.535-5.04a1208 1208 0 0 0-.125 10l-.051 2.833c-.04 5.76.522 10.645 2.176 16.168h2l-1 4c-4.875-.875-4.875-.875-6-2a136 136 0 0 1-.246-6.125l-.1-3.832q-.092-3.996-.172-7.993c-.245-9.159-.694-17.343-5.045-25.55l-1.316-2.532c-.97-1.906-.97-1.906-2.121-2.968-.027-3.498.028-6.983.127-10.479.067-4.564-.186-8.288-2.127-12.521-2.994-2.386-2.994-2.386-6-4l2-6 4 2v2h2c-3.762-4.687-3.762-4.687-8.25-8.625-2.426-1.906-3.004-3.39-3.75-6.375.277-5.082 1.753-8.508 4-13-1.351-4.053-3.38-4.87-7-7-2.226-.77-2.226-.77-4-1 .76-5.497 1.64-10.966 2.562-16.438l.42-2.506 1.018-6.056 3-.008c8.295-.185 13.846-1.025 20-6.992 5.848-2.925 16.947-2.281 23.136-.325m92.86 27.332c-3.118 1.911-6.3 1.863-9.86 1.98l-2.113.104c-1.712.082-3.424.147-5.137.209-.673 3.416-1.337 6.833-2 10.25l-.578 2.934-.547 2.832-.508 2.602c-.469 2.64-.469 2.64-.367 6.382l2.125.75c3.245 1.41 5.978 3.229 8.875 5.25-1.81 5.692-1.81 5.692-3.187 7.938-1.28 3.247-.576 5.715.187 9.062 1.896 4.318 4.868 6.783 8.477 9.668C160 221 160 221 161 223h-2l-1-3-3-1-2 6 2.875 1.625c3.68 2.797 4.08 3.955 5.125 8.375.189 3.609 0 7.203-.166 10.81-.12 4.678.303 7.297 3.166 11.19q1.093 1.92 2.125 3.875l1.008 1.867c1.98 5.157 1.996 10.75 2.078 16.215l.086 3.87c.04 2.005.078 4.01.104 6.017.028 1.954.075 3.909.122 5.863l.06 3.515L170 301c2.815 2.277 2.815 2.277 6 2l1-4h-2c-1.936-6.465-2.246-12.276-2.125-19l.027-2.926q.036-3.537.098-7.074a80.2 80.2 0 0 1 3 15l3-1v12l2-1v-23l2 23c1.644-3.287 2.413-5.48 3-9h2v-14h2c.143 9.034-.415 17.99-1 27l-1.937-.562L185 298c-1.296 1.066-1.296 1.066-1.062 3.563L184 304c2.293.86 2.293.86 5 1 2.354-1.25 2.354-1.25 4-4 .66-3.614.698-7.208.75-10.875l.092-3.116c.184-6.823.206-13.64-.002-20.462C194 264 194 264 196 261l.438-3.5c.556-3.465.824-4.476 3.562-6.5l-1-1.937c-2.15-6.587-1.432-13.65 1-20.063 2.938-1.625 2.938-1.625 6-3 2.027-2.885 2.027-2.885 3-6l-1-3-1.059 1.75-1.379 2.25-1.37 2.25L203 225h-1l2-5-4 1 1.39-1.031c4.644-3.668 7.797-7.257 9.61-12.969 0-4.155-2.201-7.55-4.16-11.133C206 194 206 194 206 191l7-4-1-25-10-2c-2.934-1.508-2.934-1.508-5.437-3.125-5.55-2.944-10.274-3.47-16.438-3.5-.809-.01-1.618-.02-2.45-.032-6.297.148-9.857 2.113-14.566 6.364"/><path fill="#dcc7aa" d="M507 229h18v71l-14 1c-3.745.878-7.29 1.788-10.937 2.938l-2.667.802c-3.653 1.101-7.287 2.223-10.9 3.451C483 309 483 309 473 309v-72l18-1c3.203-.592 6.057-1.148 9.125-2.062l2.066-.565c1.608-.441 3.21-.904 4.809-1.373z"/><path fill="#dcc8ab" d="m430 101 1 39c-11.25 3.375-11.25 3.375-15.625 4.188l-2.54.48c-.605.11-1.21.22-1.835.332 5.211 5.77 11.699 9.72 18.135 14.004l2.666 1.816 2.442 1.634L436 164c0 3 0 3-2 5.188L432 171c-4.209-1.486-7.603-3.595-11.29-6.098l-1.772-1.195q-2.784-1.879-5.563-3.77-2.789-1.894-5.584-3.78a1848 1848 0 0 1-5.051-3.423c-2.673-1.845-2.673-1.845-5.74-2.734v32h-17v-68c14.434-4.441 14.434-4.441 20.75-5.937 6.63-1.597 13.156-3.459 19.667-5.489C423.81 101.54 426.412 101 430 101M576 226h16v41l-14 1c-3.023.74-5.735 1.462-8.625 2.5q-1.987.673-3.977 1.344L562 273l-4 1-1 34h-18v-72l16-1c3.634-.907 6.9-1.798 10.375-3.062C573.898 229 573.898 229 576 229z"/><path fill="#decaac" d="M477 102h17v72l-16 2c-4.452 1.136-4.452 1.136-8.863 2.414C467 179 467 179 464 179v3h-17v-70h18v58l9-3h3z"/><path fill="#ddc8ac" d="M397 211c1.498 3.371 2 5.204 2 9-3.79 1.132-7.582 2.254-11.375 3.375l-3.215.96-3.183.938-2.889.857c-4.4 1.147-8.878 1.978-13.338 2.87l-1 29 9-3c2.848-.512 2.848-.512 5.063-.687L382 254v-5h15v47c-10.072 3.148-20.14 6.289-30.25 9.313l-3.582 1.087-3.434 1.026-3.055.919C354 309 354 309 350 309l-1-8c5.202-2.366 10.361-4.079 15.875-5.562l2.277-.631c5.264-1.44 10.502-2.619 15.848-3.807v-29c-8.066 2.288-8.066 2.288-16.122 4.607l-3.116.862-3.127.888C357 269 357 269 346 269v-48l17-1c4.69-.828 4.69-.828 8.59-2.066l2.065-.601c2.1-.615 4.19-1.254 6.283-1.895q3.22-.959 6.443-1.906c1.91-.566 3.817-1.143 5.724-1.722C395 211 395 211 397 211"/><path fill="#dcc9ac" d="M388 85c1.875 2.375 1.875 2.375 3 5l-1 3c-1.759.752-1.759.752-4.05 1.281l-2.561.614-2.702.605-5.175 1.219L370 98l-12 3-1 82h-17l-1-76-27 9-4-1c-1.75-3.562-1.75-3.562-3-7 6.264-2.934 12.72-4.722 19.375-6.562a1580 1580 0 0 0 33.25-9.75l2.114-.644 4.085-1.246q2.862-.872 5.728-1.738a318 318 0 0 0 6.45-2.054l2.646-.861 2.217-.751c2.678-.494 4.54-.19 7.135.606M616 98c3.375 1.186 5.647 2.276 8 5-1.498 3.542-3.55 5.728-6.312 8.375-2.706 2.631-5.28 5.23-7.625 8.188L608 122h-2l-.617 1.61c-1.978 3.419-4.686 5.903-7.508 8.64l-1.707 1.68A1078 1078 0 0 1 592 138c1.604 4.005 4.421 6.677 7.445 9.64l1.606 1.598q2.532 2.511 5.074 5.012l3.441 3.414q4.21 4.176 8.434 8.336c-1.667 3.77-3.335 5.07-7 7-15.739-15.541-15.739-15.541-20.8-21.68-1.185-1.463-1.185-1.463-3.2-2.32v33h-17v-73h17v18c9.298-7.758 9.298-7.758 17-17h2l1-3h2l1-3h2l1-3h2z"/><path fill="#ddcaad" d="m553 100 2 9c-6.082 2.14-12.23 3.954-18.437 5.688l-2.441.686C528.245 117 528.245 117 526 117v55l24-7h4c3 5.75 3 5.75 3 8a9038 9038 0 0 1-18.61 4.465c-3.537.845-7.07 1.699-10.593 2.601l-3.235.809-2.62.68c-4.268.646-8.626.445-12.942.445v-72l14-2c4.08-1.109 8.053-2.253 12.063-3.562q2.954-.943 5.91-1.88l2.57-.834c3.133-.923 6.18-1.724 9.457-1.724"/><path fill="#dcc8ac" d="m472 227 2 7c-9.089 3.408-18.583 5.646-28 8l-1 66h-16v-61c-6.206 2.065-6.206 2.065-12.398 4.168l-2.977 1.02-3.023 1.042C408 254 408 254 405 254l-3-9q5.091-1.511 10.188-3l2.908-.867 2.822-.82 2.587-.762c2.576-.569 4.865-.65 7.495-.551v-4l2.35-.074c8.75-.45 16.408-2.349 24.712-5.051a941 941 0 0 1 7.098-2.258l3.114-1.012c2.738-.608 4.129-.56 6.726.395"/></svg>